<svg version="1.1" id="Layer_1" x="0px" y="0px" width="201.58197" height="282.21503" viewBox="0 0 201.58197 282.21503" enable-background="new 0 0 1400 980" xml:space="preserve" xmlns="http://www.w3.org/2000/svg" xmlns:svg="http://www.w3.org/2000/svg">
  <defs id="defs819" />
  <g id="g124" transform="translate(-823.59698,-149.36)">
    <path fill="#030202" d="m 1025.179,159.438 c 0,-5.565 -4.513,-10.078 -10.078,-10.078 v 0 H 833.676 v 0 0 c -5.566,0 -10.079,4.513 -10.079,10.078 v 0 262.058 c 0,5.566 4.513,10.079 10.079,10.079 0.007,0 0.015,0 0.022,0 h 181.379 c 0.01,0 0.016,0 0.022,0 5.566,0 10.079,-4.513 10.079,-10.079 V 159.438 Z" id="path2" />
    <g id="g122">
      <g id="g64">
        <g id="g32">
          <g id="g16">
            <path fill="#ffffff" d="m 1015.1,291.027 c -0.309,0 -0.56,-0.25 -0.56,-0.56 v -12.596 l -5.678,-9.516 c -0.052,-0.087 -0.08,-0.186 -0.08,-0.287 v -8.679 c 0,-0.31 0.252,-0.561 0.561,-0.561 h 2.189 v -25.533 c -0.4,-0.422 -1.459,-1.576 -2.645,-3.158 v 2.933 c 0,0.209 -0.116,0.4 -0.302,0.497 -0.184,0.097 -0.407,0.082 -0.58,-0.038 -6.032,-4.232 -8.596,-13.275 -7.509,-19.227 0.604,-3.311 2.292,-5.48 4.753,-6.11 1.8,-0.462 3.386,-0.228 4.71,0.695 2.106,1.467 3.003,4.31 3.356,5.948 0.943,-1.417 2.148,-4.445 -0.682,-8.543 -1.993,-2.885 -4.847,-3.951 -7.867,-5.081 -3.903,-1.46 -7.938,-2.969 -9.89,-8.602 -0.921,-2.661 -0.158,-6.15 1.942,-8.892 2.337,-3.049 5.933,-4.643 9.854,-4.359 5.234,0.37 7.977,4.219 8.734,7.401 0.812,3.407 -0.378,6.633 -3.029,8.217 -2.244,1.341 -4.563,1.222 -6.361,-0.323 -1.773,-1.525 -2.498,-4.014 -1.719,-5.92 0.901,-2.214 2.69,-2.824 3.937,-2.68 1.092,0.129 1.887,0.8 2.025,1.709 0.259,1.678 -1.299,2.577 -2.157,2.819 -0.299,0.081 -0.604,-0.09 -0.689,-0.387 -0.084,-0.296 0.088,-0.605 0.384,-0.691 0.063,-0.018 1.528,-0.455 1.356,-1.571 -0.059,-0.392 -0.481,-0.699 -1.05,-0.767 -0.868,-0.106 -2.104,0.359 -2.77,1.99 -0.591,1.449 0.016,3.447 1.413,4.647 1.41,1.212 3.253,1.291 5.057,0.212 2.258,-1.35 3.221,-4.03 2.514,-6.996 -0.67,-2.814 -3.095,-6.216 -7.723,-6.544 -4.851,-0.338 -7.649,2.311 -8.887,3.923 -1.849,2.413 -2.563,5.565 -1.772,7.845 1.779,5.134 5.395,6.486 9.224,7.919 3.05,1.141 6.203,2.319 8.396,5.493 4.479,6.483 -0.16,10.85 -0.208,10.894 -0.155,0.142 -0.379,0.187 -0.576,0.109 -0.198,-0.075 -0.336,-0.255 -0.358,-0.465 0,-0.046 -0.512,-4.593 -3.095,-6.389 -1.046,-0.727 -2.319,-0.905 -3.79,-0.528 -2.013,0.516 -3.408,2.371 -3.93,5.227 -0.973,5.324 1.285,13.314 6.169,17.43 v -3.377 c -1.429,-2.142 -2.8,-4.744 -3.241,-7.308 -0.377,-2.183 -0.087,-3.913 0.859,-5.143 1.144,-1.486 2.821,-1.651 2.894,-1.657 0.154,-0.017 0.311,0.039 0.427,0.145 0.116,0.106 0.182,0.256 0.182,0.413 v 13.189 c 1.768,2.59 3.571,4.449 3.604,4.482 0.102,0.104 0.159,0.245 0.159,0.392 v 25.759 h 2.448 c 0.223,0 0.425,0.133 0.514,0.337 0.09,0.205 0.048,0.442 -0.104,0.605 l -3.008,3.22 c -0.157,0.169 -0.4,0.224 -0.614,0.139 -0.215,-0.085 -0.354,-0.291 -0.354,-0.521 v -2.66 h -1.63 v 7.965 l 5.679,9.516 c 0.052,0.087 0.078,0.186 0.078,0.287 v 12.75 c -10e-4,0.312 -0.25,0.562 -0.56,0.562 z m -2.449,-31.077 v 1.24 l 1.16,-1.24 z m -4.883,-44.229 c -0.44,0.158 -1.039,0.473 -1.505,1.083 -0.739,0.972 -0.951,2.403 -0.633,4.256 0.312,1.813 1.15,3.679 2.138,5.371 z" id="path4" />
            <path fill="#ffffff" d="m 1012.217,201.142 c -0.155,0 -0.309,-0.065 -0.417,-0.187 -0.806,-0.9 -1.768,-1.215 -3.097,-1.65 -1.885,-0.616 -4.231,-1.384 -7.278,-4.208 -1.416,-1.313 -2.117,-2.832 -2.083,-4.518 0.075,-3.708 3.701,-6.85 3.856,-6.981 0.236,-0.201 0.589,-0.172 0.79,0.062 0.2,0.235 0.173,0.589 -0.062,0.79 -0.035,0.028 -3.403,2.953 -3.466,6.155 -0.025,1.351 0.555,2.586 1.725,3.671 2.868,2.657 5.085,3.382 6.866,3.965 0.958,0.314 1.827,0.598 2.604,1.118 v -4.86 c 0,-0.31 0.252,-0.56 0.561,-0.56 0.311,0 0.56,0.25 0.56,0.56 v 6.084 c 0,0.232 -0.142,0.44 -0.359,0.523 -0.064,0.024 -0.133,0.036 -0.2,0.036 z" id="path6" />
            <path fill="#ffffff" d="m 1008.327,188.598 c -0.308,0 -0.56,-0.25 -0.56,-0.56 V 166.77 H 986.5 c -0.309,0 -0.561,-0.25 -0.561,-0.56 0,-0.31 0.252,-0.561 0.561,-0.561 h 21.826 c 0.311,0 0.561,0.251 0.561,0.561 v 21.827 c 0,0.311 -0.249,0.561 -0.56,0.561 z" id="path8" />
            <path fill="#ffffff" d="m 984.34,180.046 c -0.847,0 -1.663,-0.126 -2.412,-0.386 -5.632,-1.951 -7.142,-5.985 -8.602,-9.889 -1.13,-3.021 -2.197,-5.874 -5.081,-7.867 -4.123,-2.848 -7.144,-1.631 -8.552,-0.684 1.638,0.354 4.488,1.247 5.958,3.357 0.922,1.325 1.156,2.91 0.695,4.711 -0.631,2.462 -2.802,4.149 -6.111,4.753 -5.956,1.089 -14.994,-1.477 -19.227,-7.51 -0.12,-0.171 -0.135,-0.395 -0.038,-0.58 0.098,-0.185 0.288,-0.302 0.498,-0.302 h 2.931 c -1.581,-1.185 -2.735,-2.244 -3.156,-2.643 h -21.729 c -0.309,0 -0.561,-0.251 -0.561,-0.561 0,-0.31 0.252,-0.56 0.561,-0.56 h 21.954 c 0.146,0 0.286,0.058 0.392,0.159 0.032,0.033 1.892,1.837 4.481,3.604 h 13.189 c 0.157,0 0.308,0.066 0.413,0.183 0.106,0.116 0.159,0.271 0.145,0.427 -0.006,0.071 -0.171,1.748 -1.657,2.893 -1.23,0.947 -2.958,1.236 -5.144,0.861 -2.563,-0.441 -5.166,-1.814 -7.308,-3.243 h -3.375 c 4.114,4.885 12.109,7.143 17.429,6.171 2.854,-0.521 4.711,-1.917 5.228,-3.931 0.376,-1.471 0.198,-2.746 -0.53,-3.792 -1.804,-2.589 -6.342,-3.088 -6.388,-3.093 -0.21,-0.021 -0.39,-0.16 -0.465,-0.357 -0.076,-0.198 -0.033,-0.421 0.11,-0.577 0.041,-0.048 4.41,-4.688 10.893,-0.208 3.174,2.192 4.353,5.346 5.494,8.396 1.431,3.827 2.783,7.443 7.918,9.222 2.279,0.791 5.432,0.079 7.844,-1.771 1.612,-1.236 4.268,-4.035 3.924,-8.887 -0.327,-4.628 -3.73,-7.052 -6.544,-7.723 -2.965,-0.708 -5.647,0.257 -6.996,2.514 -1.077,1.803 -1.001,3.646 0.211,5.057 1.201,1.396 3.2,2.006 4.648,1.413 1.632,-0.665 2.092,-1.907 1.99,-2.77 -0.067,-0.567 -0.375,-0.99 -0.767,-1.05 -1.125,-0.176 -1.567,1.339 -1.571,1.354 -0.083,0.298 -0.392,0.473 -0.69,0.388 -0.299,-0.084 -0.472,-0.393 -0.389,-0.69 0.243,-0.859 1.146,-2.421 2.82,-2.158 0.909,0.14 1.581,0.935 1.709,2.026 0.147,1.252 -0.465,3.035 -2.68,3.938 -1.908,0.777 -4.396,0.053 -5.92,-1.721 -1.546,-1.799 -1.663,-4.117 -0.323,-6.36 1.583,-2.652 4.808,-3.843 8.218,-3.029 3.182,0.759 7.029,3.501 7.4,8.734 0.279,3.925 -1.312,7.517 -4.36,9.854 -1.966,1.509 -4.321,2.327 -6.477,2.327 z m -36.232,-13.275 c 1.691,0.989 3.56,1.827 5.37,2.14 1.853,0.319 3.286,0.105 4.257,-0.635 0.61,-0.465 0.925,-1.063 1.084,-1.505 z" id="path10" />
            <path fill="#ffffff" d="m 983.844,175.199 c -1.639,0 -3.12,-0.701 -4.401,-2.085 -2.824,-3.046 -3.591,-5.393 -4.208,-7.277 -0.435,-1.33 -0.749,-2.291 -1.651,-3.098 -0.173,-0.154 -0.232,-0.4 -0.149,-0.616 0.083,-0.218 0.291,-0.36 0.522,-0.36 h 6.085 c 0.309,0 0.561,0.25 0.561,0.56 0,0.31 -0.252,0.56 -0.561,0.56 h -4.861 c 0.522,0.778 0.806,1.647 1.119,2.607 0.583,1.78 1.308,3.997 3.965,6.864 1.086,1.171 2.3,1.747 3.675,1.725 3.209,-0.065 6.123,-3.431 6.151,-3.465 0.201,-0.235 0.556,-0.262 0.79,-0.062 0.234,0.201 0.262,0.554 0.061,0.789 -0.131,0.155 -3.271,3.782 -6.979,3.857 -0.041,0 -0.081,0.001 -0.119,0.001 z" id="path12" />
            <path fill="#ffffff" d="m 1012.217,182.881 c -0.309,0 -0.561,-0.25 -0.561,-0.56 v -19.439 h -19.438 c -0.311,0 -0.56,-0.25 -0.56,-0.56 0,-0.31 0.249,-0.56 0.56,-0.56 h 19.999 c 0.311,0 0.56,0.25 0.56,0.56 v 19.999 c 0,0.31 -0.25,0.56 -0.56,0.56 z" id="path14" />
          </g>
          <g id="g30">
            <path fill="#ffffff" d="m 833.676,291.027 c -0.311,0 -0.56,-0.25 -0.56,-0.56 v -12.75 c 0,-0.102 0.026,-0.2 0.078,-0.287 l 5.679,-9.516 v -7.965 h -1.63 v 2.66 c 0,0.229 -0.14,0.436 -0.354,0.521 -0.213,0.085 -0.457,0.03 -0.614,-0.139 l -3.008,-3.22 c -0.152,-0.163 -0.194,-0.4 -0.104,-0.605 0.089,-0.204 0.291,-0.337 0.514,-0.337 h 2.448 V 233.07 c 0,-0.146 0.058,-0.287 0.159,-0.392 0.033,-0.033 1.837,-1.893 3.604,-4.482 v -13.189 c 0,-0.157 0.065,-0.307 0.182,-0.413 0.116,-0.105 0.27,-0.161 0.427,-0.145 0.072,0.006 1.75,0.171 2.894,1.657 0.946,1.229 1.236,2.96 0.859,5.143 -0.441,2.563 -1.813,5.166 -3.241,7.308 v 3.377 c 4.884,-4.115 7.142,-12.105 6.169,-17.43 -0.521,-2.855 -1.917,-4.711 -3.93,-5.227 -1.47,-0.377 -2.744,-0.198 -3.79,0.528 -2.583,1.796 -3.09,6.343 -3.095,6.389 -0.022,0.21 -0.16,0.39 -0.358,0.465 -0.195,0.077 -0.421,0.032 -0.576,-0.109 -0.048,-0.044 -4.687,-4.41 -0.209,-10.894 2.193,-3.174 5.347,-4.353 8.396,-5.493 3.829,-1.433 7.444,-2.785 9.224,-7.919 0.79,-2.279 0.076,-5.432 -1.772,-7.845 -1.237,-1.612 -4.041,-4.266 -8.886,-3.923 -4.629,0.328 -7.054,3.729 -7.724,6.544 -0.707,2.966 0.256,5.646 2.514,6.996 1.806,1.079 3.647,1 5.057,-0.212 1.397,-1.2 2.004,-3.198 1.413,-4.646 -0.665,-1.632 -1.91,-2.098 -2.77,-1.991 -0.568,0.067 -0.991,0.375 -1.05,0.767 -0.174,1.128 1.339,1.566 1.354,1.571 0.298,0.083 0.472,0.393 0.388,0.69 -0.083,0.298 -0.39,0.472 -0.69,0.388 -0.858,-0.242 -2.416,-1.142 -2.157,-2.819 0.139,-0.909 0.934,-1.58 2.025,-1.709 1.258,-0.141 3.035,0.467 3.937,2.681 0.779,1.905 0.055,4.394 -1.719,5.919 -1.801,1.544 -4.119,1.663 -6.361,0.323 -2.651,-1.584 -3.841,-4.81 -3.029,-8.217 0.758,-3.183 3.5,-7.031 8.734,-7.401 3.917,-0.284 7.516,1.311 9.854,4.359 2.101,2.741 2.863,6.23 1.942,8.892 -1.952,5.633 -5.986,7.142 -9.89,8.602 -3.021,1.13 -5.874,2.196 -7.867,5.081 -2.83,4.098 -1.625,7.126 -0.682,8.543 0.354,-1.639 1.25,-4.481 3.356,-5.948 1.324,-0.923 2.91,-1.154 4.71,-0.695 2.461,0.63 4.149,2.8 4.753,6.11 1.087,5.951 -1.477,14.994 -7.509,19.227 -0.171,0.12 -0.396,0.135 -0.58,0.038 -0.186,-0.097 -0.302,-0.288 -0.302,-0.497 v -2.933 c -1.186,1.582 -2.244,2.736 -2.645,3.158 v 25.533 h 2.189 c 0.309,0 0.561,0.251 0.561,0.561 v 8.679 c 0,0.102 -0.028,0.2 -0.08,0.287 l -5.678,9.516 v 12.596 c -10e-4,0.308 -0.252,0.558 -0.56,0.558 z m 1.288,-31.077 1.16,1.24 v -1.24 z m 6.044,-44.229 v 10.71 c 0.987,-1.692 1.826,-3.559 2.138,-5.371 0.318,-1.853 0.106,-3.284 -0.633,-4.256 -0.466,-0.611 -1.064,-0.925 -1.505,-1.083 z" id="path18" />
            <path fill="#ffffff" d="m 836.559,201.142 c -0.067,0 -0.136,-0.012 -0.2,-0.036 -0.218,-0.083 -0.359,-0.291 -0.359,-0.523 v -6.084 c 0,-0.31 0.249,-0.56 0.56,-0.56 0.309,0 0.561,0.25 0.561,0.56 v 4.86 c 0.777,-0.521 1.646,-0.804 2.604,-1.118 1.781,-0.583 3.998,-1.308 6.866,-3.965 1.171,-1.086 1.752,-2.322 1.724,-3.674 -0.063,-3.211 -3.43,-6.123 -3.464,-6.152 -0.235,-0.201 -0.264,-0.554 -0.063,-0.789 0.201,-0.235 0.556,-0.264 0.79,-0.063 0.155,0.132 3.781,3.273 3.856,6.981 0.034,1.686 -0.667,3.205 -2.083,4.518 -3.047,2.824 -5.394,3.592 -7.278,4.208 -1.329,0.436 -2.291,0.75 -3.097,1.65 -0.109,0.121 -0.262,0.187 -0.417,0.187 z" id="path20" />
            <path fill="#ffffff" d="m 840.448,188.598 c -0.311,0 -0.561,-0.25 -0.561,-0.56 v -21.827 c 0,-0.31 0.25,-0.561 0.561,-0.561 h 21.826 c 0.309,0 0.561,0.251 0.561,0.561 0,0.31 -0.252,0.56 -0.561,0.56 h -21.267 v 21.268 c 0.001,0.309 -0.251,0.559 -0.559,0.559 z" id="path22" />
            <path fill="#ffffff" d="m 864.436,180.046 c -2.156,0 -4.51,-0.818 -6.479,-2.327 -3.049,-2.337 -4.64,-5.929 -4.36,-9.854 0.371,-5.233 4.219,-7.976 7.4,-8.734 3.409,-0.813 6.634,0.377 8.218,3.029 1.34,2.243 1.223,4.562 -0.323,6.36 -1.524,1.773 -4.012,2.499 -5.92,1.721 -2.215,-0.902 -2.827,-2.686 -2.68,-3.938 0.128,-1.092 0.8,-1.887 1.709,-2.026 1.678,-0.263 2.578,1.299 2.82,2.158 0.083,0.297 -0.09,0.604 -0.388,0.688 -0.293,0.087 -0.605,-0.087 -0.691,-0.384 -0.017,-0.063 -0.449,-1.523 -1.57,-1.355 -0.393,0.06 -0.7,0.482 -0.768,1.05 -0.102,0.862 0.358,2.104 1.99,2.77 1.448,0.59 3.447,-0.017 4.648,-1.413 1.212,-1.41 1.288,-3.254 0.211,-5.057 -1.349,-2.257 -4.028,-3.222 -6.996,-2.514 -2.813,0.671 -6.216,3.095 -6.544,7.723 -0.344,4.852 2.312,7.65 3.924,8.887 2.412,1.85 5.564,2.561 7.844,1.771 5.135,-1.778 6.487,-5.395 7.918,-9.222 1.142,-3.051 2.32,-6.204 5.494,-8.396 6.483,-4.478 10.851,0.16 10.893,0.208 0.143,0.156 0.187,0.379 0.11,0.576 -0.075,0.198 -0.255,0.337 -0.465,0.358 -0.046,0.005 -4.593,0.511 -6.389,3.095 -0.728,1.046 -0.905,2.321 -0.529,3.79 0.517,2.014 2.373,3.409 5.228,3.931 5.321,0.973 13.314,-1.286 17.429,-6.171 h -3.375 c -2.142,1.429 -4.744,2.802 -7.308,3.243 -2.186,0.375 -3.913,0.086 -5.144,-0.861 -1.486,-1.145 -1.651,-2.821 -1.657,-2.893 -0.014,-0.156 0.038,-0.311 0.145,-0.427 0.105,-0.116 0.256,-0.183 0.413,-0.183 h 13.191 c 2.59,-1.767 4.447,-3.57 4.479,-3.603 0.105,-0.103 0.245,-0.16 0.392,-0.16 h 21.954 c 0.309,0 0.561,0.25 0.561,0.56 0,0.31 -0.252,0.561 -0.561,0.561 h -21.729 c -0.421,0.398 -1.574,1.458 -3.156,2.643 h 2.931 c 0.21,0 0.4,0.117 0.498,0.302 0.097,0.186 0.082,0.409 -0.038,0.58 -4.232,6.033 -13.269,8.599 -19.227,7.51 -3.31,-0.604 -5.48,-2.291 -6.111,-4.753 -0.461,-1.801 -0.227,-3.386 0.695,-4.711 1.468,-2.106 4.31,-3.001 5.949,-3.355 -1.416,-0.942 -4.444,-2.148 -8.543,0.682 -2.884,1.993 -3.951,4.847 -5.081,7.867 -1.46,3.903 -2.97,7.938 -8.602,9.889 -0.747,0.259 -1.564,0.385 -2.41,0.385 z m 25.52,-13.275 c 0.159,0.441 0.474,1.04 1.084,1.505 0.971,0.74 2.404,0.954 4.257,0.635 1.813,-0.313 3.681,-1.15 5.372,-2.14 z" id="path24" />
            <path fill="#ffffff" d="m 864.932,175.199 c -0.038,0 -0.078,-0.001 -0.117,-0.001 -3.708,-0.075 -6.849,-3.702 -6.979,-3.857 -0.201,-0.234 -0.174,-0.588 0.061,-0.789 0.234,-0.199 0.588,-0.173 0.79,0.062 0.028,0.034 2.953,3.402 6.155,3.465 1.318,0.029 2.585,-0.554 3.671,-1.725 2.657,-2.867 3.382,-5.084 3.965,-6.864 0.313,-0.96 0.597,-1.829 1.119,-2.607 h -4.861 c -0.309,0 -0.561,-0.25 -0.561,-0.56 0,-0.31 0.252,-0.56 0.561,-0.56 h 6.085 c 0.231,0 0.439,0.143 0.522,0.36 0.083,0.216 0.023,0.462 -0.149,0.616 -0.902,0.807 -1.217,1.768 -1.651,3.098 -0.617,1.885 -1.384,4.231 -4.208,7.277 -1.283,1.384 -2.765,2.085 -4.403,2.085 z" id="path26" />
            <path fill="#ffffff" d="m 836.559,182.881 c -0.311,0 -0.56,-0.25 -0.56,-0.56 v -19.999 c 0,-0.31 0.249,-0.56 0.56,-0.56 h 19.999 c 0.311,0 0.56,0.25 0.56,0.56 0,0.31 -0.249,0.56 -0.56,0.56 H 837.12 v 19.439 c -10e-4,0.31 -0.253,0.56 -0.561,0.56 z" id="path28" />
          </g>
        </g>
        <g id="g62">
          <g id="g46">
            <path fill="#ffffff" d="m 842.979,401.606 c -0.291,0 -0.583,-0.01 -0.877,-0.03 -5.234,-0.371 -7.977,-4.219 -8.734,-7.402 -0.812,-3.406 0.378,-6.632 3.029,-8.217 2.245,-1.338 4.563,-1.22 6.361,0.325 1.773,1.523 2.498,4.013 1.719,5.918 -0.902,2.215 -2.684,2.836 -3.937,2.68 -1.092,-0.128 -1.887,-0.8 -2.025,-1.709 -0.259,-1.677 1.299,-2.576 2.157,-2.818 0.297,-0.086 0.604,0.09 0.689,0.387 0.084,0.296 -0.088,0.605 -0.384,0.69 -0.063,0.019 -1.528,0.456 -1.356,1.571 0.059,0.391 0.481,0.699 1.05,0.768 0.859,0.096 2.104,-0.36 2.77,-1.99 0.591,-1.449 -0.016,-3.446 -1.413,-4.647 -1.409,-1.211 -3.251,-1.289 -5.057,-0.211 -2.258,1.348 -3.221,4.028 -2.514,6.995 0.67,2.813 3.095,6.216 7.724,6.543 4.858,0.349 7.648,-2.311 8.886,-3.924 1.849,-2.413 2.563,-5.564 1.772,-7.843 -1.778,-5.135 -5.395,-6.486 -9.223,-7.919 -3.051,-1.141 -6.204,-2.32 -8.396,-5.494 -4.479,-6.482 0.16,-10.849 0.208,-10.892 0.155,-0.143 0.381,-0.185 0.576,-0.111 0.198,0.076 0.336,0.256 0.358,0.467 0.005,0.046 0.512,4.592 3.095,6.388 1.047,0.729 2.323,0.904 3.79,0.528 2.013,-0.517 3.408,-2.372 3.93,-5.228 0.973,-5.324 -1.285,-13.314 -6.169,-17.429 v 3.377 c 1.429,2.142 2.8,4.744 3.241,7.308 0.377,2.183 0.087,3.912 -0.859,5.142 -1.144,1.487 -2.821,1.651 -2.894,1.658 -0.157,0.012 -0.311,-0.04 -0.427,-0.145 -0.116,-0.106 -0.182,-0.256 -0.182,-0.413 v -13.191 c -1.768,-2.589 -3.571,-4.447 -3.604,-4.481 -0.102,-0.104 -0.159,-0.245 -0.159,-0.392 v -25.759 h -2.448 c -0.223,0 -0.425,-0.132 -0.514,-0.337 -0.09,-0.204 -0.048,-0.442 0.104,-0.605 l 3.008,-3.22 c 0.157,-0.167 0.401,-0.222 0.614,-0.138 0.215,0.084 0.354,0.291 0.354,0.521 v 2.659 h 1.63 v -7.965 l -5.679,-9.517 c -0.052,-0.087 -0.078,-0.186 -0.078,-0.287 v -12.749 c 0,-0.31 0.249,-0.561 0.56,-0.561 0.309,0 0.56,0.251 0.56,0.561 v 12.596 l 5.678,9.517 c 0.052,0.086 0.08,0.186 0.08,0.286 v 8.68 c 0,0.31 -0.252,0.56 -0.561,0.56 h -2.189 v 25.534 c 0.399,0.421 1.459,1.575 2.645,3.158 v -2.934 c 0,-0.209 0.116,-0.4 0.302,-0.496 0.184,-0.098 0.407,-0.082 0.58,0.038 6.032,4.232 8.595,13.274 7.509,19.226 -0.604,3.311 -2.292,5.48 -4.753,6.111 -1.802,0.46 -3.386,0.227 -4.71,-0.696 -2.106,-1.466 -3.003,-4.309 -3.356,-5.948 -0.943,1.418 -2.148,4.445 0.682,8.543 1.993,2.885 4.848,3.952 7.868,5.082 3.902,1.46 7.937,2.97 9.889,8.601 0.921,2.661 0.158,6.15 -1.942,8.892 -2.163,2.818 -5.399,4.388 -8.978,4.388 z m -1.971,-47.102 v 10.713 c 0.44,-0.16 1.039,-0.474 1.505,-1.085 0.739,-0.972 0.951,-2.403 0.633,-4.255 -0.312,-1.814 -1.151,-3.68 -2.138,-5.373 z m -6.044,-33.519 h 1.16 v -1.239 z" id="path34" />
            <path fill="#ffffff" d="m 845.214,397.473 c -0.157,0 -0.314,-0.066 -0.427,-0.196 -0.2,-0.234 -0.173,-0.588 0.062,-0.789 0.035,-0.029 3.403,-2.953 3.466,-6.156 0.025,-1.35 -0.555,-2.584 -1.725,-3.669 -2.868,-2.658 -5.083,-3.383 -6.865,-3.966 -0.959,-0.314 -1.828,-0.599 -2.605,-1.119 v 4.861 c 0,0.31 -0.252,0.561 -0.561,0.561 -0.311,0 -0.56,-0.251 -0.56,-0.561 v -6.085 c 0,-0.231 0.142,-0.44 0.359,-0.522 0.216,-0.083 0.463,-0.024 0.617,0.149 0.806,0.901 1.768,1.215 3.099,1.65 1.883,0.617 4.229,1.385 7.276,4.208 1.416,1.313 2.117,2.833 2.083,4.519 -0.075,3.707 -3.701,6.85 -3.856,6.98 -0.105,0.091 -0.234,0.135 -0.363,0.135 z" id="path36" />
            <path fill="#ffffff" d="m 862.274,415.285 h -21.826 c -0.311,0 -0.561,-0.251 -0.561,-0.561 v -21.827 c 0,-0.31 0.25,-0.56 0.561,-0.56 0.308,0 0.56,0.25 0.56,0.56 v 21.268 h 21.267 c 0.309,0 0.561,0.25 0.561,0.56 0,0.31 -0.253,0.56 -0.562,0.56 z" id="path38" />
            <path fill="#ffffff" d="m 863.095,422.057 c -0.682,0 -1.385,-0.082 -2.098,-0.252 -3.182,-0.758 -7.029,-3.5 -7.4,-8.733 -0.279,-3.925 1.312,-7.517 4.36,-9.854 2.739,-2.102 6.23,-2.862 8.891,-1.942 5.632,1.951 7.142,5.986 8.602,9.889 1.13,3.021 2.197,5.874 5.081,7.867 4.098,2.831 7.126,1.624 8.543,0.682 -1.639,-0.354 -4.481,-1.249 -5.949,-3.356 -0.922,-1.324 -1.156,-2.909 -0.695,-4.709 0.631,-2.462 2.802,-4.149 6.111,-4.754 5.954,-1.083 14.994,1.476 19.227,7.51 0.12,0.171 0.135,0.395 0.038,0.58 -0.098,0.186 -0.288,0.302 -0.498,0.302 h -2.933 c 1.582,1.186 2.737,2.245 3.158,2.645 h 21.729 c 0.309,0 0.561,0.25 0.561,0.56 0,0.31 -0.252,0.56 -0.561,0.56 h -21.954 c -0.146,0 -0.286,-0.058 -0.392,-0.159 -0.032,-0.033 -1.892,-1.838 -4.482,-3.604 h -13.188 c -0.157,0 -0.308,-0.066 -0.413,-0.182 -0.106,-0.116 -0.158,-0.271 -0.145,-0.428 0.006,-0.071 0.171,-1.749 1.657,-2.893 1.23,-0.945 2.96,-1.235 5.144,-0.861 2.563,0.442 5.165,1.814 7.307,3.243 h 3.376 c -4.114,-4.885 -12.107,-7.143 -17.429,-6.17 -2.854,0.521 -4.711,1.917 -5.228,3.93 -0.376,1.472 -0.198,2.746 0.53,3.792 1.803,2.589 6.342,3.087 6.388,3.093 0.21,0.021 0.39,0.16 0.465,0.357 0.076,0.198 0.033,0.421 -0.11,0.578 -0.042,0.047 -4.411,4.686 -10.893,0.207 -3.174,-2.192 -4.353,-5.346 -5.494,-8.396 -1.431,-3.828 -2.783,-7.444 -7.918,-9.223 -2.28,-0.788 -5.432,-0.077 -7.844,1.771 -1.612,1.237 -4.268,4.035 -3.924,8.887 0.328,4.628 3.73,7.054 6.544,7.724 2.968,0.706 5.647,-0.256 6.996,-2.515 1.077,-1.802 1.001,-3.646 -0.212,-5.057 -1.2,-1.396 -3.199,-2.004 -4.647,-1.413 -1.632,0.666 -2.092,1.908 -1.99,2.771 0.067,0.567 0.375,0.989 0.767,1.05 1.121,0.183 1.567,-1.339 1.571,-1.355 0.083,-0.296 0.392,-0.468 0.69,-0.387 0.299,0.084 0.472,0.393 0.389,0.691 -0.243,0.858 -1.146,2.419 -2.82,2.157 -0.909,-0.14 -1.58,-0.935 -1.709,-2.025 -0.147,-1.252 0.465,-3.035 2.68,-3.938 1.908,-0.777 4.396,-0.053 5.92,1.721 1.546,1.799 1.664,4.117 0.323,6.361 -1.255,2.095 -3.536,3.278 -6.122,3.278 z m 26.858,-7.892 h 10.713 c -1.692,-0.989 -3.559,-1.826 -5.369,-2.139 -1.861,-0.322 -3.299,-0.104 -4.27,0.645 -0.61,0.468 -0.919,1.058 -1.074,1.494 z" id="path40" />
            <path fill="#ffffff" d="m 874.819,419.174 h -6.085 c -0.309,0 -0.561,-0.25 -0.561,-0.56 0,-0.31 0.252,-0.561 0.561,-0.561 h 4.861 c -0.521,-0.778 -0.806,-1.646 -1.119,-2.607 -0.583,-1.78 -1.308,-3.997 -3.965,-6.863 -1.086,-1.17 -2.353,-1.712 -3.671,-1.725 -3.202,0.063 -6.127,3.431 -6.155,3.465 -0.202,0.234 -0.556,0.26 -0.79,0.061 -0.234,-0.201 -0.262,-0.554 -0.061,-0.789 0.131,-0.154 3.271,-3.781 6.979,-3.856 1.685,0.001 3.206,0.667 4.519,2.083 2.824,3.047 3.591,5.394 4.208,7.277 0.435,1.33 0.749,2.291 1.651,3.098 0.173,0.155 0.232,0.4 0.149,0.618 -0.081,0.215 -0.289,0.359 -0.521,0.359 z" id="path42" />
            <path fill="#ffffff" d="m 856.558,419.174 h -19.999 c -0.311,0 -0.56,-0.25 -0.56,-0.56 v -19.999 c 0,-0.31 0.249,-0.56 0.56,-0.56 0.309,0 0.561,0.25 0.561,0.56 v 19.438 h 19.438 c 0.311,0 0.56,0.251 0.56,0.561 0,0.31 -0.25,0.56 -0.56,0.56 z" id="path44" />
          </g>
          <g id="g60">
            <path fill="#ffffff" d="m 1005.797,401.606 c -3.579,0 -6.814,-1.57 -8.977,-4.391 -2.101,-2.741 -2.863,-6.23 -1.942,-8.892 1.952,-5.631 5.986,-7.141 9.889,-8.601 3.021,-1.13 5.875,-2.197 7.868,-5.082 2.848,-4.122 1.632,-7.143 0.683,-8.551 -0.353,1.638 -1.247,4.486 -3.357,5.956 -1.324,0.923 -2.907,1.156 -4.71,0.696 -2.461,-0.631 -4.149,-2.801 -4.753,-6.111 -1.086,-5.951 1.477,-14.993 7.509,-19.226 0.171,-0.12 0.396,-0.136 0.58,-0.038 0.186,0.096 0.302,0.287 0.302,0.496 v 2.934 c 1.186,-1.583 2.245,-2.737 2.645,-3.158 v -25.534 h -2.189 c -0.309,0 -0.561,-0.25 -0.561,-0.56 v -8.68 c 0,-0.101 0.028,-0.2 0.08,-0.286 l 5.678,-9.517 v -12.596 c 0,-0.31 0.251,-0.561 0.56,-0.561 0.311,0 0.56,0.251 0.56,0.561 v 12.749 c 0,0.102 -0.026,0.2 -0.078,0.287 l -5.679,9.517 v 7.965 h 1.63 v -2.659 c 0,-0.229 0.14,-0.437 0.354,-0.521 0.214,-0.084 0.457,-0.029 0.614,0.138 l 3.008,3.22 c 0.152,0.163 0.194,0.401 0.104,0.605 -0.089,0.205 -0.291,0.337 -0.514,0.337 h -2.448 v 25.759 c 0,0.146 -0.058,0.287 -0.159,0.392 -0.033,0.034 -1.837,1.894 -3.604,4.483 v 13.189 c 0,0.157 -0.065,0.307 -0.182,0.413 -0.116,0.104 -0.272,0.156 -0.427,0.145 -0.072,-0.007 -1.75,-0.171 -2.894,-1.658 -0.946,-1.229 -1.236,-2.959 -0.859,-5.142 0.441,-2.563 1.813,-5.166 3.241,-7.308 v -3.377 c -4.884,4.114 -7.142,12.104 -6.169,17.429 0.521,2.855 1.917,4.711 3.93,5.228 1.471,0.376 2.747,0.197 3.792,-0.529 2.588,-1.804 3.088,-6.341 3.092,-6.387 0.022,-0.211 0.161,-0.391 0.358,-0.467 0.196,-0.074 0.421,-0.032 0.577,0.111 0.048,0.043 4.687,4.409 0.209,10.892 -2.193,3.174 -5.347,4.354 -8.397,5.494 -3.828,1.433 -7.444,2.784 -9.223,7.919 -0.79,2.278 -0.076,5.43 1.772,7.843 1.237,1.613 4.03,4.277 8.887,3.924 4.628,-0.327 7.053,-3.729 7.723,-6.543 0.707,-2.967 -0.256,-5.647 -2.514,-6.995 -1.804,-1.078 -3.646,-1 -5.057,0.211 -1.397,1.201 -2.004,3.198 -1.413,4.647 0.665,1.63 1.901,2.086 2.77,1.99 0.568,-0.068 0.991,-0.377 1.05,-0.768 0.174,-1.127 -1.339,-1.565 -1.354,-1.569 -0.298,-0.085 -0.472,-0.394 -0.388,-0.691 0.083,-0.297 0.394,-0.47 0.69,-0.388 0.858,0.242 2.416,1.142 2.157,2.818 -0.139,0.909 -0.934,1.581 -2.025,1.709 -1.254,0.15 -3.035,-0.465 -3.937,-2.68 -0.779,-1.905 -0.055,-4.395 1.719,-5.918 1.798,-1.545 4.117,-1.663 6.361,-0.325 2.651,1.585 3.841,4.811 3.029,8.217 -0.758,3.184 -3.5,7.031 -8.734,7.402 -0.293,0.024 -0.586,0.033 -0.877,0.033 z m 1.971,-47.1 c -0.987,1.692 -1.826,3.56 -2.138,5.371 -0.32,1.861 -0.104,3.298 0.644,4.269 0.469,0.609 1.059,0.919 1.494,1.074 z m 4.883,-33.521 h 1.16 l -1.16,-1.239 z" id="path48" />
            <path fill="#ffffff" d="m 1003.562,397.473 c -0.129,0 -0.258,-0.044 -0.363,-0.135 -0.155,-0.131 -3.781,-3.273 -3.856,-6.98 -0.034,-1.686 0.667,-3.205 2.083,-4.519 3.047,-2.823 5.394,-3.591 7.276,-4.208 1.331,-0.436 2.293,-0.749 3.099,-1.65 0.154,-0.174 0.401,-0.232 0.617,-0.149 0.218,0.082 0.359,0.291 0.359,0.522 v 6.085 c 0,0.31 -0.249,0.561 -0.56,0.561 -0.309,0 -0.561,-0.251 -0.561,-0.561 v -4.861 c -0.777,0.521 -1.646,0.805 -2.605,1.119 -1.782,0.583 -3.997,1.308 -6.865,3.966 -1.171,1.085 -1.752,2.321 -1.724,3.673 0.063,3.21 3.43,6.123 3.464,6.152 0.235,0.2 0.264,0.555 0.063,0.789 -0.113,0.129 -0.269,0.196 -0.427,0.196 z" id="path50" />
            <path fill="#ffffff" d="m 1008.327,415.285 h -21.826 c -0.309,0 -0.561,-0.251 -0.561,-0.561 0,-0.31 0.252,-0.56 0.561,-0.56 h 21.267 v -21.268 c 0,-0.31 0.252,-0.56 0.56,-0.56 0.311,0 0.561,0.25 0.561,0.56 v 21.827 c -10e-4,0.311 -0.251,0.562 -0.562,0.562 z" id="path52" />
            <path fill="#ffffff" d="m 985.681,422.057 c -2.586,0 -4.867,-1.183 -6.12,-3.28 -1.341,-2.244 -1.223,-4.563 0.323,-6.361 1.524,-1.772 4.014,-2.498 5.92,-1.721 2.215,0.903 2.827,2.687 2.68,3.938 -0.129,1.091 -0.8,1.886 -1.709,2.025 -1.677,0.26 -2.577,-1.298 -2.82,-2.157 -0.083,-0.298 0.09,-0.605 0.388,-0.689 0.293,-0.086 0.605,0.087 0.691,0.384 0.018,0.063 0.452,1.527 1.57,1.356 0.393,-0.061 0.7,-0.482 0.768,-1.05 0.102,-0.862 -0.358,-2.104 -1.99,-2.771 -1.45,-0.591 -3.447,0.017 -4.647,1.413 -1.213,1.411 -1.289,3.255 -0.212,5.057 1.349,2.259 4.029,3.221 6.996,2.515 2.813,-0.67 6.217,-3.096 6.544,-7.724 0.344,-4.852 -2.312,-7.649 -3.924,-8.887 -2.412,-1.849 -5.564,-2.56 -7.844,-1.771 -5.135,1.778 -6.487,5.395 -7.918,9.223 -1.142,3.05 -2.32,6.203 -5.494,8.396 -6.482,4.478 -10.849,-0.16 -10.893,-0.207 -0.143,-0.157 -0.187,-0.38 -0.11,-0.578 0.075,-0.196 0.255,-0.336 0.465,-0.357 0.046,-0.006 4.593,-0.512 6.389,-3.095 0.728,-1.046 0.905,-2.32 0.529,-3.79 -0.517,-2.013 -2.373,-3.408 -5.228,-3.93 -5.32,-0.972 -13.314,1.285 -17.429,6.17 h 3.376 c 2.142,-1.429 4.744,-2.801 7.307,-3.243 2.184,-0.375 3.913,-0.084 5.144,0.861 1.486,1.144 1.651,2.821 1.657,2.893 0.015,0.156 -0.038,0.312 -0.145,0.428 -0.105,0.115 -0.256,0.182 -0.413,0.182 h -13.188 c -2.591,1.767 -4.45,3.571 -4.482,3.604 -0.105,0.102 -0.245,0.159 -0.392,0.159 h -21.954 c -0.309,0 -0.561,-0.25 -0.561,-0.56 0,-0.31 0.252,-0.56 0.561,-0.56 h 21.729 c 0.421,-0.399 1.576,-1.459 3.158,-2.645 h -2.933 c -0.21,0 -0.4,-0.116 -0.498,-0.302 -0.097,-0.186 -0.082,-0.409 0.038,-0.58 4.232,-6.034 13.272,-8.598 19.227,-7.51 3.31,0.604 5.48,2.292 6.111,4.754 0.461,1.8 0.227,3.385 -0.695,4.709 -1.468,2.107 -4.311,3.002 -5.949,3.356 1.417,0.944 4.445,2.15 8.543,-0.682 2.884,-1.993 3.951,-4.847 5.081,-7.867 1.46,-3.902 2.97,-7.938 8.602,-9.889 2.661,-0.921 6.151,-0.159 8.891,1.942 3.049,2.337 4.64,5.929 4.36,9.854 -0.371,5.233 -4.219,7.976 -7.4,8.733 -0.716,0.172 -1.419,0.254 -2.1,0.254 z m -37.572,-7.892 h 10.71 c -0.159,-0.442 -0.474,-1.04 -1.084,-1.505 -0.973,-0.739 -2.401,-0.955 -4.257,-0.634 -1.81,0.313 -3.676,1.15 -5.369,2.139 z" id="path54" />
            <path fill="#ffffff" d="m 980.041,419.174 h -6.085 c -0.231,0 -0.439,-0.144 -0.522,-0.359 -0.083,-0.218 -0.023,-0.463 0.149,-0.618 0.902,-0.807 1.217,-1.768 1.651,-3.098 0.617,-1.884 1.384,-4.23 4.208,-7.277 1.313,-1.416 2.846,-2.084 4.519,-2.083 3.708,0.075 6.849,3.702 6.979,3.856 0.201,0.235 0.174,0.588 -0.061,0.789 -0.234,0.199 -0.587,0.174 -0.79,-0.061 -0.028,-0.034 -2.953,-3.402 -6.155,-3.465 -1.354,-0.021 -2.586,0.555 -3.671,1.725 -2.657,2.866 -3.382,5.083 -3.965,6.863 -0.313,0.961 -0.599,1.829 -1.119,2.607 h 4.861 c 0.309,0 0.561,0.251 0.561,0.561 0,0.31 -0.251,0.56 -0.56,0.56 z" id="path56" />
            <path fill="#ffffff" d="m 1012.217,419.174 h -19.999 c -0.311,0 -0.56,-0.25 -0.56,-0.56 0,-0.31 0.249,-0.561 0.56,-0.561 h 19.438 v -19.438 c 0,-0.31 0.252,-0.56 0.561,-0.56 0.311,0 0.56,0.25 0.56,0.56 v 19.999 c 0,0.31 -0.25,0.56 -0.56,0.56 z" id="path58" />
          </g>
        </g>
      </g>
      <g id="g120">
        <g id="g90">
          <g id="g76">
            <path fill="#ffffff" d="m 940.419,275.94 c -0.25,0 -0.499,-0.009 -0.752,-0.027 -4.489,-0.317 -6.843,-3.619 -7.493,-6.349 -0.699,-2.931 0.326,-5.707 2.611,-7.071 1.91,-1.141 3.966,-1.034 5.5,0.283 1.533,1.317 2.157,3.473 1.484,5.124 -0.786,1.924 -2.341,2.453 -3.433,2.327 -0.966,-0.114 -1.67,-0.711 -1.794,-1.522 -0.229,-1.483 1.14,-2.276 1.894,-2.488 0.3,-0.082 0.607,0.09 0.69,0.388 0.084,0.298 -0.09,0.606 -0.386,0.69 -0.063,0.019 -1.226,0.371 -1.092,1.24 0.046,0.295 0.374,0.527 0.818,0.58 0.708,0.087 1.718,-0.297 2.265,-1.639 0.489,-1.198 -0.018,-2.854 -1.178,-3.851 -0.686,-0.59 -2.144,-1.395 -4.195,-0.171 -2.253,1.346 -2.56,3.903 -2.096,5.85 0.563,2.361 2.598,5.217 6.482,5.492 4.088,0.286 6.434,-1.944 7.473,-3.3 1.556,-2.027 2.154,-4.672 1.493,-6.582 -1.498,-4.323 -4.551,-5.465 -7.783,-6.674 -2.602,-0.973 -5.293,-1.979 -7.17,-4.696 -3.844,-5.565 0.148,-9.323 0.189,-9.36 0.157,-0.143 0.38,-0.186 0.576,-0.111 0.198,0.075 0.336,0.255 0.358,0.465 0.004,0.039 0.431,3.863 2.594,5.366 0.878,0.611 1.908,0.755 3.148,0.436 2.261,-0.578 3.023,-2.986 3.275,-4.371 0.812,-4.447 -1.043,-11.096 -5.072,-14.604 v 2.657 c 1.213,1.823 2.378,4.037 2.752,6.219 0.323,1.877 0.072,3.368 -0.746,4.432 -0.995,1.292 -2.455,1.436 -2.517,1.441 -0.159,0.019 -0.312,-0.039 -0.428,-0.146 -0.115,-0.105 -0.182,-0.256 -0.182,-0.412 v -11.18 c -1.491,-2.179 -3.008,-3.741 -3.035,-3.77 -0.104,-0.104 -0.16,-0.245 -0.16,-0.392 V 211.57 c 0,-0.31 0.249,-0.561 0.56,-0.561 0.309,0 0.561,0.251 0.561,0.561 v 18.419 c 0.337,0.358 1.15,1.248 2.075,2.463 v -2.238 c 0,-0.209 0.116,-0.4 0.302,-0.497 0.185,-0.096 0.409,-0.081 0.58,0.038 5.151,3.614 7.34,11.334 6.412,16.413 -0.52,2.845 -1.976,4.711 -4.099,5.255 -1.555,0.396 -2.924,0.194 -4.07,-0.604 -1.728,-1.203 -2.506,-3.478 -2.839,-4.903 -0.763,1.246 -1.581,3.708 0.687,6.99 1.677,2.428 4.089,3.33 6.641,4.284 3.333,1.247 6.779,2.536 8.449,7.356 0.79,2.285 0.139,5.28 -1.661,7.63 -1.85,2.419 -4.622,3.764 -7.688,3.764 z m -1.591,-39.772 v 8.66 c 0.348,-0.142 0.783,-0.396 1.129,-0.852 0.61,-0.805 0.785,-1.998 0.52,-3.546 -0.247,-1.433 -0.883,-2.907 -1.649,-4.262 z" id="path66" />
            <path fill="#ffffff" d="m 942.317,272.429 c -0.159,0 -0.315,-0.066 -0.427,-0.195 -0.201,-0.235 -0.173,-0.589 0.062,-0.79 0.028,-0.024 2.86,-2.483 2.913,-5.165 0.021,-1.122 -0.463,-2.149 -1.439,-3.054 -2.42,-2.243 -4.292,-2.856 -5.797,-3.349 -0.77,-0.251 -1.469,-0.48 -2.104,-0.875 v 3.974 c 0,0.31 -0.25,0.56 -0.56,0.56 -0.31,0 -0.561,-0.25 -0.561,-0.56 v -5.168 c 0,-0.232 0.144,-0.44 0.361,-0.523 0.217,-0.081 0.461,-0.022 0.616,0.15 0.67,0.749 1.477,1.013 2.595,1.378 1.607,0.526 3.61,1.182 6.21,3.592 1.223,1.132 1.826,2.445 1.797,3.901 -0.064,3.186 -3.173,5.877 -3.305,5.99 -0.104,0.09 -0.233,0.134 -0.361,0.134 z" id="path68" />
            <path fill="#ffffff" d="m 938.269,287.557 c -0.101,0 -0.201,-0.027 -0.291,-0.081 -0.168,-0.102 -0.27,-0.283 -0.27,-0.479 V 268.46 c 0,-0.31 0.25,-0.56 0.561,-0.56 0.309,0 0.56,0.25 0.56,0.56 v 17.588 c 1.734,-0.988 5.983,-3.553 10.44,-7.327 -0.251,-0.585 -0.446,-1.185 -0.576,-1.787 -0.601,-2.79 0.222,-5.293 2.319,-7.048 0.236,-0.2 0.591,-0.166 0.788,0.07 0.198,0.237 0.168,0.59 -0.069,0.788 -2.259,1.891 -2.305,4.281 -1.944,5.953 0.092,0.422 0.217,0.841 0.375,1.254 2.574,-2.264 5.166,-4.92 7.337,-7.898 -2.806,-6.798 -7.072,-14.445 -9.488,-18.409 -0.146,-0.238 -0.093,-0.548 0.123,-0.726 0.217,-0.176 0.532,-0.166 0.736,0.025 l 13.254,12.357 c 0.171,0.159 0.225,0.406 0.136,0.622 -0.901,2.205 -2.098,4.295 -3.476,6.251 2.306,5.778 3.559,11.149 1.518,13.311 -1.246,1.319 -2.946,1.763 -4.78,1.251 -2.229,-0.623 -4.423,-2.601 -5.746,-4.984 -5.784,4.86 -11.149,7.691 -11.248,7.742 -0.083,0.043 -0.173,0.064 -0.259,0.064 z m 12.37,-8.544 c 1.159,2.22 3.155,4.077 5.183,4.644 1.002,0.28 2.452,0.344 3.666,-0.941 1.581,-1.674 0.549,-6.217 -1.5,-11.449 -2.213,2.922 -4.798,5.526 -7.349,7.746 z m 0.294,-24.616 c 2.016,3.517 5.068,9.12 7.345,14.543 1.085,-1.611 2.039,-3.311 2.796,-5.086 z" id="path70" />
            <path fill="#ffffff" d="m 934.966,290.859 c -0.31,0 -0.561,-0.251 -0.561,-0.561 v -16.984 c 0,-0.31 0.251,-0.56 0.561,-0.56 0.31,0 0.56,0.25 0.56,0.56 v 16.984 c -10e-4,0.31 -0.251,0.561 -0.56,0.561 z" id="path72" />
            <path fill="#ffffff" d="m 934.966,291.33 c -0.259,0 -0.489,-0.178 -0.547,-0.439 -0.067,-0.302 0.124,-0.601 0.426,-0.668 0.217,-0.048 21.809,-4.96 29.967,-18.641 0.096,-0.161 0.266,-0.264 0.452,-0.272 0.191,-0.003 0.368,0.075 0.479,0.227 l 5.174,6.999 c 1.632,-2.144 2.739,-4.434 2.622,-6.637 -0.147,-2.812 -1.284,-4.619 -3.289,-5.229 -2.314,-0.701 -5.265,0.396 -6.356,1.852 -0.186,0.248 -0.537,0.297 -0.783,0.112 -0.247,-0.186 -0.298,-0.536 -0.111,-0.783 1.314,-1.756 4.752,-3.11 7.577,-2.252 1.425,0.434 3.85,1.821 4.083,6.241 0.136,2.593 -1.172,5.228 -3.049,7.634 l 7.853,10.624 c 0.132,0.177 0.146,0.416 0.038,0.608 -0.108,0.191 -0.322,0.311 -0.54,0.281 l -18.977,-1.79 c -0.24,-0.022 -0.439,-0.197 -0.493,-0.433 -0.054,-0.236 0.05,-0.479 0.255,-0.604 0.097,-0.058 6.392,-3.913 10.445,-8.723 l -4.857,-6.57 c -8.687,13.554 -29.357,18.253 -30.247,18.449 -0.043,0.009 -0.083,0.014 -0.122,0.014 z m 26.736,-3.097 16.115,1.521 -6.939,-9.387 c -3.018,3.529 -7.073,6.46 -9.176,7.866 z" id="path74" />
          </g>
          <g id="g88">
            <path fill="#ffffff" d="m 935.072,369.924 c -0.311,0 -0.56,-0.251 -0.56,-0.561 v -18.645 c 0,-0.146 0.057,-0.287 0.16,-0.392 0.027,-0.028 1.544,-1.592 3.035,-3.771 V 335.38 c 0,-0.158 0.066,-0.308 0.182,-0.414 0.116,-0.104 0.273,-0.153 0.427,-0.145 0.063,0.006 1.522,0.149 2.518,1.44 0.818,1.064 1.069,2.555 0.746,4.433 -0.374,2.181 -1.539,4.394 -2.752,6.217 v 2.657 c 4.029,-3.506 5.884,-10.154 5.072,-14.602 -0.252,-1.384 -1.014,-3.794 -3.275,-4.373 -1.24,-0.318 -2.27,-0.175 -3.148,0.437 -2.163,1.502 -2.59,5.326 -2.594,5.364 -0.022,0.21 -0.16,0.391 -0.358,0.466 -0.196,0.074 -0.419,0.033 -0.576,-0.11 -0.041,-0.037 -4.033,-3.796 -0.189,-9.359 1.878,-2.718 4.568,-3.726 7.172,-4.698 3.231,-1.209 6.283,-2.351 7.781,-6.674 0.661,-1.909 0.063,-4.555 -1.493,-6.582 -1.039,-1.356 -3.396,-3.596 -7.473,-3.298 -3.884,0.274 -5.92,3.129 -6.482,5.49 -0.464,1.946 -0.157,4.506 2.096,5.851 2.052,1.229 3.508,0.419 4.195,-0.172 1.16,-0.996 1.667,-2.651 1.178,-3.851 -0.547,-1.341 -1.561,-1.719 -2.265,-1.638 -0.444,0.052 -0.772,0.285 -0.818,0.579 -0.136,0.885 1.078,1.237 1.089,1.24 0.298,0.084 0.473,0.393 0.389,0.69 -0.083,0.299 -0.391,0.473 -0.69,0.388 -0.754,-0.212 -2.123,-1.005 -1.894,-2.489 0.124,-0.81 0.828,-1.407 1.794,-1.52 1.084,-0.127 2.648,0.402 3.433,2.327 0.673,1.65 0.049,3.805 -1.484,5.123 -1.534,1.32 -3.592,1.425 -5.5,0.284 -2.285,-1.366 -3.311,-4.142 -2.61,-7.073 0.649,-2.73 3.003,-6.031 7.492,-6.349 3.358,-0.229 6.438,1.123 8.441,3.735 1.801,2.349 2.452,5.345 1.662,7.63 -1.67,4.82 -5.115,6.109 -8.449,7.355 -2.552,0.954 -4.964,1.856 -6.641,4.286 -2.268,3.28 -1.449,5.742 -0.687,6.989 0.333,-1.427 1.111,-3.7 2.839,-4.904 1.146,-0.797 2.516,-1.003 4.07,-0.604 2.125,0.545 3.58,2.411 4.1,5.257 0.926,5.08 -1.262,12.798 -6.413,16.41 -0.173,0.122 -0.396,0.135 -0.581,0.039 -0.185,-0.097 -0.301,-0.288 -0.301,-0.497 v -2.238 c -0.925,1.215 -1.738,2.105 -2.075,2.464 v 18.419 c -0.002,0.313 -0.254,0.564 -0.563,0.564 z m 3.756,-33.817 v 8.657 c 0.766,-1.354 1.402,-2.828 1.648,-4.26 0.266,-1.547 0.091,-2.74 -0.52,-3.545 -0.345,-0.453 -0.78,-0.709 -1.128,-0.852 z" id="path78" />
            <path fill="#ffffff" d="m 934.966,323.688 c -0.068,0 -0.135,-0.013 -0.199,-0.037 -0.218,-0.082 -0.361,-0.291 -0.361,-0.523 v -5.166 c 0,-0.31 0.251,-0.56 0.561,-0.56 0.31,0 0.56,0.25 0.56,0.56 v 3.972 c 0.635,-0.395 1.334,-0.623 2.103,-0.874 1.504,-0.492 3.378,-1.105 5.798,-3.35 0.978,-0.905 1.461,-1.934 1.439,-3.057 -0.055,-2.689 -2.885,-5.137 -2.913,-5.162 -0.234,-0.2 -0.263,-0.554 -0.062,-0.789 0.201,-0.234 0.554,-0.263 0.789,-0.062 0.132,0.112 3.24,2.804 3.305,5.99 0.029,1.456 -0.575,2.769 -1.797,3.9 -2.601,2.411 -4.603,3.066 -6.211,3.592 -1.117,0.366 -1.924,0.63 -2.594,1.378 -0.11,0.123 -0.262,0.188 -0.418,0.188 z" id="path80" />
            <path fill="#ffffff" d="m 948.487,330.142 c -0.125,0 -0.25,-0.041 -0.354,-0.126 -0.216,-0.177 -0.269,-0.486 -0.123,-0.726 2.416,-3.964 6.683,-11.611 9.488,-18.408 -2.171,-2.98 -4.763,-5.636 -7.336,-7.899 -0.158,0.413 -0.283,0.833 -0.376,1.255 -0.36,1.673 -0.314,4.063 1.944,5.953 0.237,0.199 0.268,0.553 0.069,0.79 -0.197,0.235 -0.55,0.268 -0.788,0.069 -2.098,-1.755 -2.92,-4.258 -2.319,-7.047 0.13,-0.604 0.326,-1.204 0.577,-1.791 -4.458,-3.775 -8.707,-6.338 -10.441,-7.325 v 17.588 c 0,0.31 -0.251,0.561 -0.56,0.561 -0.311,0 -0.561,-0.251 -0.561,-0.561 v -18.537 c 0,-0.195 0.102,-0.377 0.27,-0.479 0.167,-0.103 0.374,-0.109 0.549,-0.018 0.099,0.051 5.463,2.882 11.248,7.743 1.324,-2.384 3.517,-4.36 5.746,-4.984 1.834,-0.513 3.534,-0.067 4.78,1.251 2.041,2.161 0.788,7.532 -1.518,13.309 1.378,1.958 2.574,4.047 3.476,6.252 0.089,0.215 0.035,0.462 -0.136,0.621 l -13.254,12.358 c -0.106,0.101 -0.243,0.151 -0.381,0.151 z m 9.79,-18.148 c -2.276,5.423 -5.328,11.025 -7.345,14.542 l 10.141,-9.456 c -0.757,-1.775 -1.711,-3.476 -2.796,-5.086 z m -7.637,-10.071 c 2.551,2.22 5.136,4.823 7.348,7.746 2.049,-5.231 3.08,-9.774 1.5,-11.447 -1.215,-1.286 -2.664,-1.224 -3.666,-0.941 -2.028,0.565 -4.024,2.422 -5.182,4.642 z" id="path82" />
            <path fill="#ffffff" d="m 934.966,308.181 c -0.31,0 -0.561,-0.251 -0.561,-0.561 v -16.984 c 0,-0.31 0.251,-0.561 0.561,-0.561 0.31,0 0.56,0.251 0.56,0.561 v 16.984 c -10e-4,0.31 -0.251,0.561 -0.56,0.561 z" id="path84" />
            <path fill="#ffffff" d="m 968.717,315.603 c -2.333,0 -4.684,-1.134 -5.719,-2.517 -0.187,-0.247 -0.136,-0.598 0.111,-0.784 0.246,-0.186 0.598,-0.134 0.783,0.113 1.093,1.454 4.042,2.558 6.356,1.851 2.005,-0.609 3.142,-2.418 3.289,-5.229 0.117,-2.208 -0.995,-4.504 -2.633,-6.651 l -5.162,7.014 c -0.111,0.15 -0.273,0.249 -0.479,0.227 -0.186,-0.009 -0.356,-0.11 -0.452,-0.272 -8.162,-13.688 -29.75,-18.593 -29.967,-18.641 -0.302,-0.066 -0.493,-0.366 -0.426,-0.668 0.066,-0.302 0.36,-0.492 0.667,-0.426 0.89,0.197 21.558,4.896 30.246,18.448 l 4.848,-6.584 c -4.055,-4.803 -10.338,-8.65 -10.435,-8.707 -0.205,-0.126 -0.309,-0.368 -0.256,-0.604 0.055,-0.235 0.252,-0.409 0.492,-0.433 l 18.977,-1.867 c 0.217,-0.023 0.432,0.089 0.541,0.28 0.109,0.192 0.095,0.431 -0.035,0.608 l -7.867,10.686 c 1.883,2.411 3.197,5.052 3.062,7.649 -0.233,4.421 -2.658,5.809 -4.083,6.241 -0.6,0.183 -1.229,0.266 -1.858,0.266 z m -7.024,-22.907 c 2.097,1.401 6.15,4.33 9.17,7.856 l 6.952,-9.443 z" id="path86" />
          </g>
        </g>
        <g id="g116">
          <g id="g102">
            <path fill="#ffffff" d="m 908.357,275.94 c -3.067,0 -5.839,-1.346 -7.69,-3.762 -1.801,-2.35 -2.452,-5.345 -1.661,-7.63 1.669,-4.82 5.116,-6.109 8.448,-7.356 2.553,-0.954 4.965,-1.856 6.643,-4.284 2.266,-3.282 1.449,-5.743 0.685,-6.99 -0.331,1.427 -1.11,3.7 -2.839,4.903 -1.146,0.799 -2.515,1 -4.068,0.604 -2.124,-0.544 -3.581,-2.41 -4.1,-5.255 -0.928,-5.079 1.26,-12.799 6.412,-16.413 0.171,-0.119 0.395,-0.134 0.58,-0.038 0.185,0.097 0.302,0.288 0.302,0.497 v 2.238 c 0.924,-1.215 1.737,-2.104 2.075,-2.463 v -18.419 c 0,-0.31 0.251,-0.561 0.561,-0.561 0.31,0 0.56,0.251 0.56,0.561 v 18.644 c 0,0.146 -0.058,0.287 -0.159,0.392 -0.027,0.028 -1.546,1.592 -3.036,3.772 v 11.177 c 0,0.156 -0.067,0.307 -0.183,0.412 -0.115,0.106 -0.265,0.164 -0.427,0.146 -0.062,-0.006 -1.522,-0.149 -2.517,-1.441 -0.819,-1.063 -1.069,-2.555 -0.747,-4.433 0.376,-2.181 1.54,-4.395 2.753,-6.217 v -2.658 c -4.03,3.508 -5.885,10.156 -5.072,14.604 0.253,1.385 1.014,3.792 3.275,4.371 1.24,0.317 2.27,0.176 3.148,-0.436 2.162,-1.503 2.589,-5.327 2.593,-5.366 0.022,-0.21 0.161,-0.39 0.359,-0.465 0.198,-0.074 0.42,-0.031 0.575,0.111 0.041,0.037 4.034,3.795 0.19,9.36 -1.877,2.717 -4.568,3.724 -7.17,4.696 -3.233,1.209 -6.286,2.351 -7.783,6.674 -0.662,1.91 -0.062,4.555 1.492,6.582 1.039,1.356 3.381,3.578 7.474,3.3 3.885,-0.275 5.92,-3.131 6.483,-5.493 0.464,-1.945 0.155,-4.503 -2.098,-5.849 -2.05,-1.224 -3.508,-0.419 -4.195,0.171 -1.159,0.996 -1.667,2.652 -1.177,3.851 0.547,1.342 1.56,1.719 2.264,1.639 0.444,-0.053 0.773,-0.285 0.818,-0.58 0.137,-0.885 -1.077,-1.236 -1.089,-1.24 -0.298,-0.083 -0.472,-0.393 -0.388,-0.69 0.083,-0.298 0.394,-0.47 0.69,-0.388 0.755,0.212 2.123,1.005 1.893,2.488 -0.124,0.812 -0.828,1.408 -1.793,1.522 -1.096,0.126 -2.647,-0.403 -3.432,-2.327 -0.674,-1.651 -0.051,-3.807 1.483,-5.124 1.535,-1.317 3.591,-1.424 5.5,-0.283 2.284,1.364 3.31,4.14 2.612,7.07 -0.652,2.73 -3.005,6.032 -7.494,6.35 -0.251,0.018 -0.501,0.026 -0.75,0.026 z m 1.591,-39.77 c -0.766,1.355 -1.402,2.829 -1.648,4.261 -0.269,1.557 -0.09,2.754 0.529,3.56 0.345,0.446 0.774,0.698 1.119,0.839 z" id="path92" />
            <path fill="#ffffff" d="m 906.46,272.429 c -0.129,0 -0.258,-0.044 -0.363,-0.134 -0.133,-0.113 -3.241,-2.805 -3.305,-5.99 -0.03,-1.456 0.574,-2.77 1.796,-3.901 2.601,-2.41 4.603,-3.065 6.211,-3.592 1.117,-0.365 1.924,-0.629 2.595,-1.378 0.154,-0.173 0.401,-0.231 0.616,-0.15 0.218,0.083 0.36,0.291 0.36,0.523 v 5.168 c 0,0.31 -0.25,0.56 -0.561,0.56 -0.308,0 -0.56,-0.25 -0.56,-0.56 v -3.974 c -0.635,0.395 -1.334,0.624 -2.103,0.875 -1.504,0.492 -3.377,1.105 -5.798,3.349 -0.976,0.904 -1.459,1.932 -1.438,3.054 0.052,2.682 2.884,5.141 2.912,5.165 0.235,0.201 0.263,0.555 0.062,0.79 -0.11,0.128 -0.266,0.195 -0.424,0.195 z" id="path94" />
            <path fill="#ffffff" d="m 910.508,287.557 c -0.088,0 -0.177,-0.021 -0.259,-0.063 -0.098,-0.051 -5.463,-2.882 -11.247,-7.742 -1.323,2.384 -3.517,4.361 -5.746,4.984 -1.837,0.513 -3.535,0.067 -4.78,-1.251 -2.042,-2.161 -0.789,-7.532 1.517,-13.311 -1.377,-1.956 -2.573,-4.046 -3.476,-6.251 -0.087,-0.216 -0.034,-0.463 0.137,-0.622 l 13.254,-12.357 c 0.205,-0.191 0.519,-0.201 0.735,-0.025 0.216,0.178 0.27,0.487 0.124,0.726 -2.417,3.964 -6.684,11.611 -9.488,18.409 2.17,2.979 4.762,5.635 7.336,7.898 0.158,-0.413 0.285,-0.832 0.375,-1.254 0.36,-1.672 0.315,-4.063 -1.942,-5.953 -0.239,-0.198 -0.27,-0.551 -0.07,-0.788 0.196,-0.236 0.55,-0.271 0.787,-0.07 2.098,1.755 2.921,4.258 2.321,7.048 -0.132,0.603 -0.326,1.202 -0.578,1.787 4.458,3.774 8.707,6.339 10.441,7.327 V 268.46 c 0,-0.31 0.25,-0.56 0.56,-0.56 0.31,0 0.561,0.25 0.561,0.56 v 18.537 c 0,0.195 -0.102,0.377 -0.271,0.479 -0.09,0.053 -0.191,0.081 -0.291,0.081 z m -19.717,-16.29 c -2.052,5.231 -3.082,9.774 -1.502,11.448 1.213,1.285 2.663,1.222 3.665,0.941 2.027,-0.566 4.024,-2.424 5.184,-4.644 -2.553,-2.219 -5.138,-4.823 -7.347,-7.745 z m -3.089,-7.413 c 0.757,1.775 1.711,3.475 2.797,5.086 2.275,-5.423 5.329,-11.026 7.345,-14.543 z" id="path96" />
            <path fill="#ffffff" d="m 913.81,290.859 c -0.308,0 -0.56,-0.251 -0.56,-0.561 v -16.984 c 0,-0.31 0.252,-0.56 0.56,-0.56 0.311,0 0.561,0.25 0.561,0.56 v 16.984 c -10e-4,0.31 -0.251,0.561 -0.561,0.561 z" id="path98" />
            <path fill="#ffffff" d="m 913.811,291.33 c -0.04,0 -0.079,-0.005 -0.121,-0.014 -0.89,-0.196 -21.559,-4.896 -30.246,-18.449 l -4.858,6.572 c 4.054,4.809 10.35,8.663 10.445,8.721 0.205,0.125 0.31,0.368 0.256,0.604 -0.055,0.235 -0.254,0.41 -0.494,0.433 l -18.976,1.79 c -0.223,0.029 -0.432,-0.09 -0.54,-0.281 -0.109,-0.192 -0.094,-0.432 0.037,-0.608 l 7.853,-10.624 c -1.876,-2.406 -3.185,-5.041 -3.048,-7.634 0.232,-4.42 2.658,-5.808 4.082,-6.241 2.826,-0.86 6.263,0.496 7.578,2.252 0.187,0.247 0.136,0.598 -0.112,0.783 -0.247,0.185 -0.6,0.136 -0.783,-0.112 -1.092,-1.455 -4.041,-2.554 -6.356,-1.852 -2.004,0.61 -3.141,2.418 -3.289,5.229 -0.116,2.204 0.99,4.494 2.622,6.638 l 5.175,-7 c 0.111,-0.151 0.288,-0.229 0.478,-0.227 0.188,0.009 0.357,0.111 0.453,0.272 8.162,13.688 29.749,18.593 29.967,18.641 0.302,0.067 0.493,0.366 0.425,0.668 -0.059,0.261 -0.291,0.439 -0.548,0.439 z m -35.913,-10.963 -6.94,9.387 16.116,-1.521 c -2.102,-1.406 -6.158,-4.337 -9.176,-7.866 z" id="path100" />
          </g>
          <g id="g114">
            <path fill="#ffffff" d="m 913.704,369.924 c -0.31,0 -0.561,-0.251 -0.561,-0.561 v -18.419 c -0.338,-0.358 -1.151,-1.249 -2.075,-2.464 v 2.238 c 0,0.209 -0.117,0.4 -0.301,0.497 -0.187,0.096 -0.409,0.083 -0.581,-0.039 -5.15,-3.612 -7.34,-11.33 -6.413,-16.409 0.52,-2.847 1.976,-4.713 4.101,-5.258 1.555,-0.398 2.924,-0.193 4.069,0.604 1.728,1.204 2.507,3.478 2.838,4.904 0.765,-1.247 1.581,-3.709 -0.685,-6.989 -1.678,-2.43 -4.091,-3.332 -6.643,-4.286 -3.333,-1.246 -6.779,-2.535 -8.448,-7.355 -0.791,-2.285 -0.14,-5.281 1.663,-7.63 2.001,-2.613 5.076,-3.974 8.44,-3.735 4.488,0.317 6.842,3.619 7.494,6.349 0.697,2.932 -0.327,5.707 -2.612,7.073 -1.909,1.141 -3.965,1.035 -5.5,-0.284 -1.534,-1.318 -2.157,-3.473 -1.483,-5.123 0.784,-1.925 2.342,-2.454 3.432,-2.327 0.965,0.112 1.669,0.71 1.793,1.52 0.23,1.484 -1.138,2.277 -1.893,2.489 -0.297,0.085 -0.607,-0.089 -0.69,-0.388 -0.084,-0.297 0.089,-0.605 0.385,-0.689 0.06,-0.018 1.227,-0.37 1.092,-1.241 -0.045,-0.294 -0.374,-0.527 -0.818,-0.579 -0.704,-0.081 -1.717,0.297 -2.264,1.638 -0.49,1.199 0.018,2.854 1.177,3.851 0.688,0.591 2.144,1.4 4.195,0.172 2.253,-1.345 2.562,-3.904 2.098,-5.85 -0.564,-2.362 -2.6,-5.217 -6.483,-5.491 -4.086,-0.291 -6.434,1.942 -7.474,3.298 -1.554,2.027 -2.154,4.673 -1.492,6.582 1.497,4.323 4.55,5.465 7.78,6.674 2.604,0.973 5.295,1.98 7.173,4.698 3.844,5.563 -0.149,9.322 -0.19,9.359 -0.155,0.144 -0.377,0.185 -0.575,0.11 -0.198,-0.075 -0.337,-0.256 -0.359,-0.466 -0.004,-0.038 -0.431,-3.862 -2.592,-5.364 -0.879,-0.611 -1.909,-0.755 -3.149,-0.437 -2.262,0.579 -3.022,2.989 -3.276,4.373 -0.811,4.448 1.044,11.096 5.073,14.602 v -2.657 c -1.213,-1.823 -2.377,-4.036 -2.753,-6.217 -0.322,-1.878 -0.072,-3.368 0.747,-4.433 0.994,-1.291 2.455,-1.435 2.517,-1.44 0.155,-0.009 0.312,0.04 0.427,0.145 0.115,0.106 0.183,0.256 0.183,0.414 v 11.174 c 1.49,2.181 3.009,3.744 3.036,3.772 0.102,0.104 0.159,0.245 0.159,0.392 v 18.645 c -0.002,0.307 -0.252,0.558 -0.562,0.558 z m -3.756,-33.817 c -0.349,0.143 -0.784,0.397 -1.129,0.853 -0.611,0.805 -0.786,1.998 -0.52,3.545 0.245,1.432 0.883,2.904 1.648,4.26 v -8.658 z" id="path104" />
            <path fill="#ffffff" d="m 913.81,323.688 c -0.155,0 -0.308,-0.065 -0.416,-0.188 -0.67,-0.748 -1.477,-1.012 -2.594,-1.378 -1.609,-0.525 -3.611,-1.181 -6.212,-3.593 -1.22,-1.131 -1.826,-2.443 -1.796,-3.899 0.063,-3.187 3.172,-5.878 3.305,-5.99 0.234,-0.202 0.587,-0.173 0.788,0.062 0.201,0.235 0.174,0.588 -0.062,0.789 -0.028,0.024 -2.86,2.485 -2.912,5.166 -0.021,1.122 0.463,2.148 1.438,3.052 2.421,2.245 4.294,2.858 5.798,3.351 0.769,0.251 1.468,0.479 2.103,0.874 v -3.972 c 0,-0.31 0.252,-0.56 0.56,-0.56 0.311,0 0.561,0.25 0.561,0.56 v 5.166 c 0,0.232 -0.143,0.441 -0.36,0.523 -0.066,0.025 -0.133,0.037 -0.201,0.037 z" id="path106" />
            <path fill="#ffffff" d="m 900.288,330.142 c -0.137,0 -0.273,-0.05 -0.381,-0.15 l -13.254,-12.358 c -0.171,-0.159 -0.224,-0.406 -0.137,-0.621 0.902,-2.205 2.099,-4.294 3.476,-6.252 -2.306,-5.776 -3.558,-11.147 -1.517,-13.309 1.245,-1.318 2.945,-1.764 4.78,-1.251 2.229,0.624 4.422,2.601 5.746,4.984 5.785,-4.861 11.149,-7.692 11.247,-7.743 0.175,-0.092 0.381,-0.085 0.549,0.018 0.169,0.102 0.271,0.283 0.271,0.479 v 18.537 c 0,0.31 -0.251,0.561 -0.561,0.561 -0.31,0 -0.56,-0.251 -0.56,-0.561 v -17.588 c -1.734,0.988 -5.984,3.554 -10.441,7.328 0.252,0.584 0.446,1.184 0.578,1.788 0.6,2.789 -0.224,5.292 -2.321,7.047 -0.236,0.198 -0.591,0.166 -0.787,-0.069 -0.199,-0.237 -0.169,-0.591 0.07,-0.79 2.258,-1.89 2.303,-4.28 1.942,-5.953 -0.092,-0.421 -0.217,-0.841 -0.375,-1.253 -2.574,2.263 -5.166,4.919 -7.336,7.898 2.805,6.797 7.071,14.443 9.488,18.407 0.146,0.239 0.092,0.549 -0.124,0.726 -0.101,0.084 -0.227,0.125 -0.353,0.125 z m -12.586,-13.062 10.141,9.456 c -2.016,-3.515 -5.068,-9.119 -7.345,-14.541 -1.085,1.61 -2.039,3.31 -2.796,5.085 z m 4.096,-19.967 c -0.808,0 -1.709,0.262 -2.509,1.108 -1.58,1.673 -0.55,6.216 1.501,11.447 2.21,-2.923 4.795,-5.526 7.347,-7.746 -1.158,-2.22 -3.155,-4.077 -5.183,-4.643 -0.342,-0.095 -0.737,-0.166 -1.156,-0.166 z" id="path108" />
            <path fill="#ffffff" d="m 913.81,308.181 c -0.308,0 -0.56,-0.251 -0.56,-0.561 v -16.984 c 0,-0.31 0.252,-0.561 0.56,-0.561 0.311,0 0.561,0.251 0.561,0.561 v 16.984 c -10e-4,0.31 -0.251,0.561 -0.561,0.561 z" id="path110" />
            <path fill="#ffffff" d="m 880.06,315.603 c -0.63,0 -1.258,-0.083 -1.859,-0.266 -1.424,-0.433 -3.85,-1.82 -4.082,-6.241 -0.137,-2.598 1.178,-5.238 3.061,-7.649 l -7.866,-10.686 c -0.13,-0.178 -0.146,-0.416 -0.036,-0.608 0.109,-0.191 0.324,-0.304 0.543,-0.28 l 18.975,1.867 c 0.24,0.023 0.438,0.197 0.492,0.433 0.053,0.235 -0.051,0.478 -0.256,0.604 -0.096,0.057 -6.379,3.905 -10.434,8.708 l 4.847,6.583 c 8.689,-13.552 29.356,-18.251 30.246,-18.448 0.304,-0.066 0.601,0.124 0.667,0.426 0.068,0.302 -0.123,0.602 -0.425,0.668 -0.218,0.048 -21.809,4.96 -29.967,18.641 -0.096,0.162 -0.267,0.264 -0.453,0.272 -0.192,0.022 -0.368,-0.076 -0.479,-0.227 l -5.162,-7.013 c -1.637,2.147 -2.749,4.444 -2.633,6.65 0.148,2.812 1.285,4.62 3.289,5.229 2.316,0.705 5.265,-0.396 6.356,-1.851 0.186,-0.247 0.538,-0.298 0.783,-0.113 0.248,0.187 0.299,0.537 0.112,0.784 -1.036,1.382 -3.387,2.517 -5.719,2.517 z m -9.099,-24.494 6.951,9.443 c 3.021,-3.526 7.073,-6.455 9.171,-7.856 z" id="path112" />
          </g>
        </g>
        <path fill="#ffffff" d="m 924.248,301.154 c -0.144,0 -0.287,-0.055 -0.396,-0.164 l -10.296,-10.295 c -0.104,-0.105 -0.163,-0.247 -0.163,-0.396 0,-0.148 0.059,-0.291 0.163,-0.396 l 10.296,-10.295 c 0.219,-0.219 0.573,-0.219 0.792,0 l 10.296,10.295 c 0.104,0.104 0.164,0.247 0.164,0.396 0,0.149 -0.06,0.291 -0.164,0.396 l -10.296,10.295 c -0.11,0.11 -0.253,0.164 -0.396,0.164 z m -9.504,-10.855 9.504,9.504 9.504,-9.504 -9.504,-9.503 z" id="path118" />
      </g>
    </g>
  </g>
</svg>